<svg width="512" height="512" viewBox="0 0 512 512" fill="none" xmlns="http://www.w3.org/2000/svg">
<rect width="512" height="512" fill="#238BB5"/>
<path d="M270.026 257.45L199.552 256.114C185.969 255.891 174.724 252.217 165.818 245.092C156.911 237.967 152.458 228.949 152.458 218.038C152.458 203.119 163.368 188.312 185.19 173.616C207.234 158.697 233.286 147.007 263.346 138.546C293.628 129.862 319.68 125.52 341.502 125.52C384.699 125.52 406.298 136.542 406.298 158.586C406.298 165.711 398.616 178.96 383.252 198.332C368.11 217.704 356.754 227.39 349.184 227.39C347.625 227.39 346.066 226.722 344.508 225.386C343.172 223.827 342.504 221.935 342.504 219.708C342.504 217.481 345.176 213.473 350.52 207.684C356.086 201.672 358.87 197.33 358.87 194.658C358.87 192.654 356.309 191.652 351.188 191.652C337.382 191.652 315.561 196.885 285.724 207.35C255.886 217.593 240.968 225.72 240.968 231.732C240.968 234.181 243.417 235.74 248.316 236.408C253.214 236.853 261.898 237.299 274.368 237.744C286.837 237.967 297.748 238.746 307.1 240.082C316.452 241.418 324.022 243.422 329.812 246.094C335.824 248.543 340.388 251.215 343.506 254.11C346.846 257.005 349.518 260.345 351.522 264.13C354.416 270.142 355.864 276.154 355.864 282.166C355.864 298.198 344.842 314.341 322.798 330.596C300.976 346.851 274.59 359.877 243.64 369.674C212.912 379.471 185.524 384.37 161.476 384.37C111.598 384.37 86.6597 368.672 86.6597 337.276C86.6597 322.803 98.127 310.89 121.062 301.538C128.41 307.995 144.553 311.224 169.492 311.224C187.75 310.111 204.562 307.55 219.926 303.542C235.29 299.311 247.314 294.747 255.998 289.848C264.682 284.727 271.473 279.939 276.372 275.486C281.27 270.81 284.054 266.913 284.722 263.796C284.276 259.565 279.378 257.45 270.026 257.45Z" fill="white"/>
</svg>
